<?xml version="1.0" encoding="utf-8"?>
<!-- Generator: Adobe Illustrator 17.1.0, SVG Export Plug-In . SVG Version: 6.00 Build 0)  -->
<!DOCTYPE svg PUBLIC "-//W3C//DTD SVG 1.1//EN" "http://www.w3.org/Graphics/SVG/1.1/DTD/svg11.dtd">
<svg version="1.1" id="Слой_1" xmlns="http://www.w3.org/2000/svg" xmlns:xlink="http://www.w3.org/1999/xlink" x="0px" y="0px"
	 viewBox="0 0 200 194" enable-background="new 0 0 200 194" xml:space="preserve">
<g>
	<path fill="#FFFFFF" d="M66,97c-17.6,0-35.2,0-52.9,0c0-17.2,0-34.5,0-51.8c17.6,0,35.2,0,52.9,0C66,62.4,66,79.7,66,97z
		 M33.8,78.7C31.2,76,29,73.8,27,71.5c-2.3-2.5-3.9-1.3-5.8,0.6c-1.7,1.7-2.8,3.2-0.6,5.4c3.7,3.6,7.3,7.3,11,10.9
		c2.4,2.4,4.5,2.4,6.6-0.5c6.6-9.8,13.3-19.5,19.7-29.4c0.6-1,0.2-3.5-0.7-4.4c-2.7-2.9-5.1-2.7-7.4,1
		C44.8,62.8,39.4,70.4,33.8,78.7z"/>
	<path fill="#0070CD" d="M76,134.8c27.9-41.1,54.6-78.6,79.3-117.4c11.7-18.3,23.5-19.6,36.9-5.2c4.3,4.7,6.5,17.2,3.3,22.1
		c-31.9,49.1-65.3,97.3-98,145.9c-10,14.8-20.7,14.3-32.5,2.6c-18.2-18-36-36.5-54.5-54.1C-0.9,118,4.8,110.6,13.2,102
		c9.1-9.3,17.4-15.5,28.7-3C52.3,110.5,63.2,121.5,76,134.8z"/>
</g>
</svg>
