<?xml version="1.0" encoding="utf-8"?>
<!-- Generator: Adobe Illustrator 17.1.0, SVG Export Plug-In . SVG Version: 6.00 Build 0)  -->
<!DOCTYPE svg PUBLIC "-//W3C//DTD SVG 1.1//EN" "http://www.w3.org/Graphics/SVG/1.1/DTD/svg11.dtd">
<svg version="1.1" id="Capa_1" xmlns="http://www.w3.org/2000/svg" xmlns:xlink="http://www.w3.org/1999/xlink" x="0px" y="0px"
	 viewBox="0 65 500 370" enable-background="new 0 65 500 370" xml:space="preserve">
<g>
	<g>
		<path fill="#0070CD" d="M491.4,242.4h-42.3c17.6-39.9,15.7-72.2,9-94.1c-11.4-39-49.9-81.3-106.9-81.3c-15.2,0-30.4,2.9-46.1,8.6
			c-27.1,10-45.2,20.9-53.2,26.6c-8.1-5.7-25.7-16.6-53.2-26.6C183,69.9,167.3,67,152.6,67c-57,0-95.5,42.3-106.9,81.3
			c-6.7,23.3-9,58.5,13.3,102.7H7.6c-4.3,0-7.6,3.3-7.6,7.6c0,4.3,3.3,7.6,7.6,7.6H68c2.4,4.3,5.2,8.6,8.6,12.8
			c49.4,71.3,156.8,148.8,176.3,153.5v0.5c0,0,0.5,0,1-0.5c0.5,0,1,0,1.4,0V432c16.6-8.1,119.8-74.6,174-153.5
			c5.2-7.1,9.5-14.3,13.3-21.4h49.9c4.3,0,7.6-3.3,7.6-7.6C500,245.2,495.7,242.4,491.4,242.4z M415.4,270.4
			c-50.4,73.7-143.1,133.1-163,145.9c-20.4-12.8-112.6-72.7-163.5-145.9c-1-1.4-1.9-2.9-2.9-4.3h69.9c2.9,0,5.7-1.4,7.1-4.3
			l31.8-62.7L244.8,327c1,2.9,4.3,4.8,7.1,4.8c0,0,0,0,0.5,0c3.3,0,6.2-2.4,7.1-5.7l43.7-149.7l23.3,75.6c1,2.9,3.3,4.8,6.2,5.2
			c2.9,0.5,5.7-1,7.6-3.3l18.5-27.1l15.7,26.6c1.4,2.4,3.8,3.8,6.7,3.8H424C421.1,261.9,418.3,266.2,415.4,270.4z M432.5,242.4
			h-46.6l-19.5-33.3c-1.4-2.4-3.8-3.8-6.7-3.8c-2.9,0-5.2,1-6.7,3.3L337,232.4l-26.1-85.1c-1-3.3-4.3-5.2-7.6-5.7
			c-3.3,0-6.7,2.4-7.6,5.7l-44.2,152.6l-48-122.6c-1-2.9-3.8-4.8-6.7-4.8c-3.3,0-5.7,1.4-7.1,4.3l-37.5,73.7H76.5
			c-19-34.7-24.2-68-15.7-97.9c10-33.7,42.8-69.9,92.2-69.9c13.3,0,27.1,2.9,40.9,7.6c34.7,12.8,53.2,27.6,53.7,27.6
			c2.9,2.4,6.7,2.4,9.5,0c0,0,18.5-14.7,53.7-27.6c13.8-5.2,27.6-7.6,40.9-7.6c49,0,82.2,36.1,92.2,69.9
			C452,180.1,447.7,210.6,432.5,242.4z"/>
	</g>
</g>
</svg>
