<?xml version="1.0" encoding="utf-8"?>
<!-- Generator: Adobe Illustrator 17.1.0, SVG Export Plug-In . SVG Version: 6.00 Build 0)  -->
<!DOCTYPE svg PUBLIC "-//W3C//DTD SVG 1.1//EN" "http://www.w3.org/Graphics/SVG/1.1/DTD/svg11.dtd">
<svg version="1.1" id="Слой_1" xmlns="http://www.w3.org/2000/svg" xmlns:xlink="http://www.w3.org/1999/xlink" x="0px" y="0px"
	 viewBox="0 0 90 90" enable-background="new 0 0 90 90" xml:space="preserve">
<g>
	<path fill="#0070CD" d="M61.5,79.5c-3-1.4-8.3-3.1-12.8-6C35.8,64.9,25,54,16.4,41.1c-2.4-3.7-4.2-8-5.4-12.2
		c-1.8-6.7,1.9-14,8-17.3c3.2-1.7,5.7-1.5,7.5,1.9c1.4,2.6,2.8,5.4,4.6,7.7c4,5.3,5.4,10.4,0.6,16.1c-0.9,1-0.7,4.2,0.3,5.3
		c4.8,5.3,10,10.2,15,15.3c2.5,2.5,5,1.4,7.2-0.4c4.1-3.3,7.9-3.2,12.1-0.1c3.2,2.3,6.8,4.1,10.3,6.1c3.1,1.8,3.6,4.2,1.9,7.2
		C75.2,76.3,70.4,79.4,61.5,79.5z"/>
</g>
</svg>
